# xmcd
#
# Track frame offsets: 
#        150
#        20150
#        48722
#        84092
#        107980
#        126757
#        151035
#        186122
#        218325
#        240747
#        261250
#
# Disc length: 3709 seconds
#
# Revision: 2
# Processed by: cddbd v1.5.2PL0 Copyright (c) Steve Scherf et al.
# Submitted via: ExactAudioCopy v0.99pb5
#
DISCID=8d0e7b0b
DTITLE=Dwight Sills - Dwight Sills
DYEAR=1990
DGENRE=Columbia
TTITLE0=Standing On A Rainbow
TTITLE1=Whip Appeal
TTITLE2=My Turn
TTITLE3=Soul Dancing
TTITLE4=Theme From "Driving Miss Daisy" (Miss Daisy's Version)
TTITLE5=Never Too Late To Fall In Love Again
TTITLE6=Beyond The Dream
TTITLE7=Our First Sunrise Together
TTITLE8=Goose Bump Thang
TTITLE9=Theme From "Driving Miss Daisy" ( Driver's Version)
TTITLE10=Boppin'
EXTD=
EXTT0=
EXTT1=
EXTT2=
EXTT3=
EXTT4=
EXTT5=
EXTT6=
EXTT7=
EXTT8=
EXTT9=
EXTT10=
PLAYORDER=
